---
layout: anime

title: Golden Time
image: https://i.imgur.com/XPwOcoS.jpg
mal: 17895
anidb: 9771
r720: true
r1080: true

desc: >-
  So this series was recommended by a friend. It also has some decent ratings, so I thought I'd check it out. When I couldn't find a nice bloated release out there, I decided to mux one together.
  <br><br>
  Video source on 1080p is Kagura (thanks to shamil11 for obtaining), 720p Winter. The audio for 720p is the FLAC taken from Kagura's release and encoded to AAC. Subtitles & chapters are from FFF, synced by me (no additional modifications were made).

issues: >-
  • Episode 10 is slightly desyned<br>
  • Some signs look off/dispositioned

status: Complete
groups: Kagura, Winter, FFF
vidinfo: .mkv, h264 10-bit

size720: ~600 MB / Episode @ 720p (1280x720)
size1080: ~1.2 GB / Episode @ 1080p (1920x1080)
audio720a: Japanese 2ch AAC (Main Dialogue)
audio1080a: Japanese 2.0ch FLAC (Main Dialogue)
subtitle1: English Dialogue (.ass) [FFF]

nyaa720: https://nyaa.si/view/1042186
anidex720: https://anidex.info/torrent/150504
at720: https://animetosho.org/view/cyc-golden-time-bd-720p-hi10-x264-aac.n1042186
ant720: https://animetorrents.me/torrent-details.php?torid=36304
ab720: https://animebytes.tv/torrents.php?id=17546&torrentid=369060

nyaa1080: https://nyaa.si/view/1042188
anidex1080: https://anidex.info/torrent/150506
at1080: https://animetosho.org/view/cyc-golden-time-bd-1080p-hi10-x264-flac.n1042188
ant1080: https://animetorrents.me/torrent-details.php?torid=36305
ab1080: https://animebytes.tv/torrents.php?id=17546&torrentid=369068

github: https://github.com/cyc-anime/golden-time
---
General
Unique ID                                : 180368321456613009118087510354346720122 (0x87B1ACD5663A8DC38C3462D221B93B7A)
Complete name                            : [CyC] Golden Time 01 (BD 720p Hi10 x264 AAC) [3978BE33].mkv
Format                                   : Matroska
Format version                           : Version 4 / Version 2
File size                                : 576 MiB
Duration                                 : 23 min 42 s
Overall bit rate                         : 3 395 kb/s
Movie name                               : Springtime
Encoded date                             : UTC 2018-05-26 01:34:33
Writing application                      : mkvmerge v9.7.1 ('Pandemonium') 64bit
Writing library                          : libebml v1.3.4 + libmatroska v1.4.5
Attachments                              : KozGoPr6n-M.ttf / KozMinPro-Regular.ttf / QuattrocentoSans-Bold.ttf / QuattrocentoSans-BoldItalic.ttf / tf2professor.ttf / Vnthfapf.TTF / AGaramondPro-Bold.otf / A-OTF TakaHandSTD-B.ttf / CorpidBold.otf / HGSHeiseiMGTaiW4-CP2.ttf / KGMercyInTheMorning.ttf / KozGoPr6n-B.ttf

Video
ID                                       : 1
Format                                   : AVC
Format/Info                              : Advanced Video Codec
Format profile                           : High 10@L4.1
Format settings                          : CABAC / 9 Ref Frames
Format settings, CABAC                   : Yes
Format settings, RefFrames               : 9 frames
Codec ID                                 : V_MPEG4/ISO/AVC
Duration                                 : 23 min 42 s
Bit rate                                 : 3 052 kb/s
Width                                    : 1 280 pixels
Height                                   : 720 pixels
Display aspect ratio                     : 16:9
Frame rate mode                          : Constant
Frame rate                               : 23.976 (24000/1001) FPS
Color space                              : YUV
Chroma subsampling                       : 4:2:0
Bit depth                                : 10 bits
Scan type                                : Progressive
Bits/(Pixel*Frame)                       : 0.138
Stream size                              : 517 MiB (90%)
Writing library                          : x264 core 132 r2309 3b1f1f7
Encoding settings                        : cabac=1 / ref=9 / deblock=1:-2:-2 / analyse=0x3:0x133 / me=umh / subme=9 / psy=1 / psy_rd=0.90:0.00 / mixed_ref=1 / me_range=24 / chroma_me=1 / trellis=2 / 8x8dct=1 / cqm=0 / deadzone=21,11 / fast_pskip=1 / chroma_qp_offset=-2 / threads=6 / lookahead_threads=1 / sliced_threads=0 / nr=0 / decimate=0 / interlaced=0 / bluray_compat=0 / constrained_intra=0 / bframes=8 / b_pyramid=2 / b_adapt=2 / b_bias=0 / direct=1 / weightb=1 / open_gop=0 / weightp=2 / keyint=250 / keyint_min=23 / scenecut=40 / intra_refresh=0 / rc=crf / mbtree=0 / crf=15.6 / qcomp=0.70 / qpmin=9 / qpmax=40 / qpstep=4 / ip_ratio=1.40 / pb_ratio=1.30 / aq=1:0.90
Language                                 : Japanese
Default                                  : No
Forced                                   : No

Audio
ID                                       : 2
Format                                   : AAC
Format/Info                              : Advanced Audio Codec
Format profile                           : LC
Codec ID                                 : A_AAC-2
Duration                                 : 23 min 42 s
Bit rate                                 : 331 kb/s
Channel(s)                               : 2 channels
Channel positions                        : Front: L R
Sampling rate                            : 48.0 kHz
Frame rate                               : 46.875 FPS (1024 SPF)
Compression mode                         : Lossy
Stream size                              : 56.0 MiB (10%)
Language                                 : Japanese
Default                                  : Yes
Forced                                   : No

Text
ID                                       : 3
Format                                   : ASS
Codec ID                                 : S_TEXT/ASS
Codec ID/Info                            : Advanced Sub Station Alpha
Duration                                 : 23 min 26 s
Bit rate                                 : 1 739 b/s
Count of elements                        : 2838
Compression mode                         : Lossless
Stream size                              : 299 KiB (0%)
Title                                    : FFF
Language                                 : English
Default                                  : Yes
Forced                                   : No

Menu
00:00:00.000                             : en:Prologue
00:00:29.027                             : en:Opening
00:01:59.035                             : en:Part A
00:12:24.076                             : en:Eyecatch
00:12:29.081                             : en:Part B
00:21:56.105                             : en:Ending
00:23:26.069                             : en:Preview
===
General
Unique ID                                : 231778523292019783470374656541506863570 (0xAE5EEB7B1E711DF59385B6AD454301D2)
Complete name                            : [CyC] Golden Time 01 (BD 1080p Hi10 x264 FLAC) [9CA32BDA].mkv
Format                                   : Matroska
Format version                           : Version 4 / Version 2
File size                                : 1.46 GiB
Duration                                 : 23 min 42 s
Overall bit rate mode                    : Variable
Overall bit rate                         : 8 838 kb/s
Movie name                               : Springtime
Encoded date                             : UTC 2018-05-26 01:26:43
Writing application                      : mkvmerge v9.7.1 ('Pandemonium') 64bit
Writing library                          : libebml v1.3.4 + libmatroska v1.4.5
Attachments                              : KozGoPr6n-M.ttf / KozMinPro-Regular.ttf / QuattrocentoSans-Bold.ttf / QuattrocentoSans-BoldItalic.ttf / tf2professor.ttf / Vnthfapf.TTF / AGaramondPro-Bold.otf / A-OTF TakaHandSTD-B.ttf / CorpidBold.otf / HGSHeiseiMGTaiW4-CP2.ttf / KGMercyInTheMorning.ttf / KozGoPr6n-B.ttf

Video
ID                                       : 1
Format                                   : AVC
Format/Info                              : Advanced Video Codec
Format profile                           : High 10@L5.1
Format settings                          : CABAC / 8 Ref Frames
Format settings, CABAC                   : Yes
Format settings, RefFrames               : 8 frames
Codec ID                                 : V_MPEG4/ISO/AVC
Duration                                 : 23 min 42 s
Bit rate                                 : 8 083 kb/s
Width                                    : 1 920 pixels
Height                                   : 1 080 pixels
Display aspect ratio                     : 16:9
Frame rate mode                          : Constant
Frame rate                               : 23.976 (24000/1001) FPS
Color space                              : YUV
Chroma subsampling                       : 4:2:0
Bit depth                                : 10 bits
Scan type                                : Progressive
Bits/(Pixel*Frame)                       : 0.163
Stream size                              : 1.34 GiB (91%)
Writing library                          : x264 core 142 r2389+41 02cb608 tMod [10-bit@all X86_64]
Encoding settings                        : cabac=1 / ref=8 / deblock=1:0:0 / analyse=0x3:0x133 / me=umh / subme=10 / psy=1 / fade_compensate=0.00 / psy_rd=0.70:0.05 / mixed_ref=1 / me_range=32 / chroma_me=1 / trellis=2 / 8x8dct=1 / cqm=0 / deadzone=21,11 / fast_pskip=0 / chroma_qp_offset=-4 / threads=12 / lookahead_threads=3 / sliced_threads=0 / nr=0 / decimate=0 / interlaced=0 / bluray_compat=0 / constrained_intra=0 / fgo=2 / bframes=12 / b_pyramid=2 / b_adapt=2 / b_bias=0 / direct=3 / weightb=1 / open_gop=0 / weightp=2 / keyint=480 / keyint_min=4 / scenecut=50 / intra_refresh=0 / rc=crf / mbtree=0 / crf=16.0000 / qcomp=0.70 / qpmin=10:10:10 / qpmax=40:40:40 / qpstep=4 / ip_ratio=1.40 / pb_ratio=1.24 / aq=3:0.70 / aq-sensitivity=10.00 / aq-factor=1.00:1.00:1.00 / aq2=0 / aq3=0
Language                                 : Japanese
Default                                  : Yes
Forced                                   : No

Audio
ID                                       : 2
Format                                   : FLAC
Format/Info                              : Free Lossless Audio Codec
Codec ID                                 : A_FLAC
Duration                                 : 23 min 42 s
Bit rate mode                            : Variable
Bit rate                                 : 743 kb/s
Channel(s)                               : 2 channels
Channel positions                        : Front: L R
Sampling rate                            : 48.0 kHz
Frame rate                               : 11.719 FPS (4096 SPF)
Bit depth                                : 16 bits
Stream size                              : 126 MiB (8%)
Writing library                          : libFLAC 1.3.0 (UTC 2013-05-26)
Language                                 : Japanese
Default                                  : Yes
Forced                                   : No

Text
ID                                       : 3
Format                                   : ASS
Codec ID                                 : S_TEXT/ASS
Codec ID/Info                            : Advanced Sub Station Alpha
Duration                                 : 23 min 26 s
Bit rate                                 : 1 739 b/s
Count of elements                        : 2838
Compression mode                         : Lossless
Stream size                              : 299 KiB (0%)
Title                                    : FFF
Language                                 : English
Default                                  : Yes
Forced                                   : No

Menu
00:00:00.000                             : en:Prologue
00:00:29.027                             : en:Opening
00:01:59.035                             : en:Part A
00:12:24.076                             : en:Eyecatch
00:12:29.081                             : en:Part B
00:21:56.105                             : en:Ending
00:23:26.069                             : en:Preview